# xmcd
#
# Track frame offsets:
#  150
#  19696
#  38130
#  54272
#  72109
#  90481
#  107250
#  124238
#  141515
#  157194
#  173598
#  190714
#  209432
#  228651
#
# Disc length: 3308 seconds
#
# Revision: 0
# Processed by: cddbd v1.5.2PL0 Copyright (c) Steve Scherf et al.
# Submitted via: AltoMP3_Maker 3.0
#
DISCID=b90cea0e
DTITLE=Diego Zambon - Io non mi arrendero'
DYEAR=1900
DGENRE=
TTITLE0=Io non mi arrendero'
TTITLE1=Il poeta
TTITLE2=Batticuore
TTITLE3=Il regno dell'amore
TTITLE4=Meglio Giocare
TTITLE5=In due parole
TTITLE6=Un anno senza te
TTITLE7=Il fiore della mia vita
TTITLE8=L'ultimo tango
TTITLE9=Encantar
TTITLE10=Porta con te
TTITLE11=Esisti solo tu
TTITLE12=Concerto
TTITLE13=Ti voglio bene
EXTD=
EXTT0=
EXTT1=
EXTT2=
EXTT3=
EXTT4=
EXTT5=
EXTT6=
EXTT7=
EXTT8=
EXTT9=
EXTT10=
EXTT11=
EXTT12=
EXTT13=
PLAYORDER=
